<?xml version="1.0" encoding="UTF-8"?>
<svg version="1.1" xmlns="http://www.w3.org/2000/svg" width="64" height="64">
<path d="M0 0 C1.65 0.33 3.3 0.66 5 1 C5 2.32 5 3.64 5 5 C5.61875 5.268125 6.2375 5.53625 6.875 5.8125 C9 7 9 7 11 10 C11.125 12.6875 11.125 12.6875 11 15 C9.35 15.33 7.7 15.66 6 16 C5.01 14.35 4.02 12.7 3 11 C2.01 11.33 1.02 11.66 0 12 C0.33 12.99 0.66 13.98 1 15 C2.670625 15.7115625 2.670625 15.7115625 4.375 16.4375 C9.33707165 18.57632399 9.33707165 18.57632399 11 22 C11.5877866 25.94656718 11.32295434 27.50480335 9.125 30.875 C8.42375 31.57625 7.7225 32.2775 7 33 C6.34 33 5.68 33 5 33 C4.505 35.475 4.505 35.475 4 38 C2.35 37.67 0.7 37.34 -1 37 C-1 35.68 -1 34.36 -1 33 C-1.61875 32.731875 -2.2375 32.46375 -2.875 32.1875 C-5 31 -5 31 -7 28 C-7.125 25.3125 -7.125 25.3125 -7 23 C-5.35 22.67 -3.7 22.34 -2 22 C-1.01 23.65 -0.02 25.3 1 27 C1.99 26.67 2.98 26.34 4 26 C3.67 25.01 3.34 24.02 3 23 C1.88625 22.525625 0.7725 22.05125 -0.375 21.5625 C-5.33707165 19.42367601 -5.33707165 19.42367601 -7 16 C-7.5877866 12.05343282 -7.32295434 10.49519665 -5.125 7.125 C-4.42375 6.42375 -3.7225 5.7225 -3 5 C-2.34 5 -1.68 5 -1 5 C-0.67 3.35 -0.34 1.7 0 0 Z M1 2 C0.938125 2.556875 0.87625 3.11375 0.8125 3.6875 C0 6 0 6 -2.625 8.375 C-5.33770643 10.79641999 -5.33770643 10.79641999 -5.0625 14.125 C-3.83657841 17.44219959 -3.12193139 18.39684604 0 20 C3.15118325 20.72045367 3.15118325 20.72045367 6 21 C6 23.64 6 26.28 6 29 C3.36 29 0.72 29 -2 29 C-2.33 27.35 -2.66 25.7 -3 24 C-3.66 24 -4.32 24 -5 24 C-4.8042208 26.40144267 -4.8042208 26.40144267 -4 29 C-2.68662604 30.0260734 -1.35335895 31.02727325 0 32 C0.75 34.1875 0.75 34.1875 1 36 C1.66 36 2.32 36 3 36 C3.061875 35.443125 3.12375 34.88625 3.1875 34.3125 C4 32 4 32 6.625 29.625 C9.33770643 27.20358001 9.33770643 27.20358001 9.0625 23.875 C7.83657841 20.55780041 7.12193139 19.60315396 4 18 C0.84881675 17.27954633 0.84881675 17.27954633 -2 17 C-2 14.36 -2 11.72 -2 9 C0.64 9 3.28 9 6 9 C6.33 10.65 6.66 12.3 7 14 C7.66 14 8.32 14 9 14 C8.8042208 11.59855733 8.8042208 11.59855733 8 9 C6.68662604 7.9739266 5.35335895 6.97272675 4 6 C3.25 3.8125 3.25 3.8125 3 2 C2.34 2 1.68 2 1 2 Z " fill="#000000" transform="translate(30,17)"/>
<path d="M0 0 C0.7940625 0.53367188 1.588125 1.06734375 2.40625 1.6171875 C4.05560547 2.64005859 4.05560547 2.64005859 5.73828125 3.68359375 C14.92500292 10.09992241 14.92500292 10.09992241 16.25 14.27734375 C16.21875 16.7421875 16.21875 16.7421875 15.40625 20.6171875 C14.74625 20.6171875 14.08625 20.6171875 13.40625 20.6171875 C13.40625 17.9771875 13.40625 15.3371875 13.40625 12.6171875 C12.84808594 12.36453125 12.28992188 12.111875 11.71484375 11.8515625 C8.156661 9.94904854 5.10921603 7.37005727 1.94140625 4.8828125 C-0.51889307 3.3204892 -0.51889307 3.3204892 -3.1171875 4.1875 C-5.7183072 5.68909276 -7.96518302 7.33113733 -10.28125 9.2421875 C-14.37946429 12.6171875 -14.37946429 12.6171875 -16.59375 12.6171875 C-16.59375 15.2571875 -16.59375 17.8971875 -16.59375 20.6171875 C-17.25375 20.6171875 -17.91375 20.6171875 -18.59375 20.6171875 C-19.08032865 17.49596347 -19.20638896 14.72794161 -18.59375 11.6171875 C-16.46192704 8.76375677 -13.82906941 6.92656586 -10.90625 4.9296875 C-10.18501953 4.38119141 -9.46378906 3.83269531 -8.72070312 3.26757812 C-3.46316221 -0.51112936 -3.46316221 -0.51112936 0 0 Z " fill="#000000" transform="translate(33.59375,3.3828125)"/>
<path d="M0 0 C2.64 0 5.28 0 8 0 C8 3.96 8 7.92 8 12 C8.99 12 9.98 12 11 12 C9.6302836 15.99500618 7.74277578 18.80009492 5 22 C0.79236776 20.4972742 -0.8027758 17.76667005 -3 14 C-3 13.34 -3 12.68 -3 12 C-2.01 12 -1.02 12 0 12 C0 8.04 0 4.08 0 0 Z M2 2 C1.67 6.62 1.34 11.24 1 16 C2.98 16.99 2.98 16.99 5 18 C7.26273207 14.44181064 7.07331744 11.87452049 6.625 7.75 C6.51414062 6.67234375 6.40328125 5.5946875 6.2890625 4.484375 C6.19367187 3.66453125 6.09828125 2.8446875 6 2 C4.68 2 3.36 2 2 2 Z " fill="#000000" transform="translate(44,25)"/>
<path d="M0 0 C2.64 0 5.28 0 8 0 C8 3.96 8 7.92 8 12 C8.99 12 9.98 12 11 12 C9.6302836 15.99500618 7.74277578 18.80009492 5 22 C0.79236776 20.4972742 -0.8027758 17.76667005 -3 14 C-3 13.34 -3 12.68 -3 12 C-2.01 12 -1.02 12 0 12 C0 8.04 0 4.08 0 0 Z M2 2 C1.67 6.62 1.34 11.24 1 16 C2.98 16.99 2.98 16.99 5 18 C7.26273207 14.44181064 7.07331744 11.87452049 6.625 7.75 C6.51414062 6.67234375 6.40328125 5.5946875 6.2890625 4.484375 C6.19367187 3.66453125 6.09828125 2.8446875 6 2 C4.68 2 3.36 2 2 2 Z " fill="#000000" transform="translate(12,25)"/>
<path d="M0 0 C0.66 0 1.32 0 2 0 C2 3.63 2 7.26 2 11 C11.9 11 21.8 11 32 11 C32 7.37 32 3.74 32 0 C32.66 0 33.32 0 34 0 C34 4.29 34 8.58 34 13 C22.78 13 11.56 13 0 13 C0 8.71 0 4.42 0 0 Z " fill="#000000" transform="translate(15,48)"/>
<path d="M0 0 C1.65 0.33 3.3 0.66 5 1 C4.67 2.65 4.34 4.3 4 6 C2.35 5.67 0.7 5.34 -1 5 C-0.67 3.35 -0.34 1.7 0 0 Z M1 2 C1 2.66 1 3.32 1 4 C1.66 4 2.32 4 3 4 C3 3.34 3 2.68 3 2 C2.34 2 1.68 2 1 2 Z " fill="#000000" transform="translate(30,9)"/>
</svg>
