<?xml version="1.0" encoding="UTF-8"?>
<svg version="1.1" xmlns="http://www.w3.org/2000/svg" width="100" height="100">
<path d="M0 0 C0.66 2.31 1.32 4.62 2 7 C2.6290625 7.01417969 3.258125 7.02835938 3.90625 7.04296875 C11.97578965 7.49262683 16.58078586 10.06924502 22.625 15.25 C29.95475495 23.73708468 34.74733731 32.54082798 34 44 C32.01432292 43.90234375 30.02864583 43.8046875 28.04296875 43.70703125 C25.93834686 43.85389654 25.93834686 43.85389654 24.28125 45.1875 C22.607685 47.55498219 22.49924553 49.3116188 22.3125 52.1875 C22.24675781 53.08855469 22.18101563 53.98960938 22.11328125 54.91796875 C22.05720703 55.94857422 22.05720703 55.94857422 22 57 C21.67 56.34 21.34 55.68 21 55 C20.09507813 54.76667969 19.19015625 54.53335938 18.2578125 54.29296875 C13.90838531 52.56675724 12.39059823 50.12557555 9.875 46.3125 C9.45863281 45.71244141 9.04226562 45.11238281 8.61328125 44.49414062 C1 33.38447786 1 33.38447786 1 30 C0.34 30 -0.32 30 -1 30 C-1.26554687 30.58136719 -1.53109375 31.16273437 -1.8046875 31.76171875 C-7.10818457 41.69277699 -17.52663865 50.18065455 -28 54 C-31.97986298 54.90323131 -35.94700473 55.53341807 -40 56 C-40 58.31 -40 60.62 -40 63 C-39.25492188 63 -38.50984375 63 -37.7421875 63 C-34.56495243 64.15864983 -34.40397494 64.58325028 -33.0078125 67.5 C-32.36545929 68.9937434 -31.7386117 70.4942219 -31.125 72 C-27.71174209 79.78758535 -24.11303238 86.33161977 -17.6875 92.0625 C-12.64180397 93.82262652 -7.564705 94.1314875 -2.609375 91.9453125 C1.35667972 89.61336455 1.35667972 89.61336455 4 86 C2.68 85.67 1.36 85.34 0 85 C-0.66 86.32 -1.32 87.64 -2 89 C-3.95803507 89.05389087 -5.91648909 89.09274217 -7.875 89.125 C-9.51082031 89.15980469 -9.51082031 89.15980469 -11.1796875 89.1953125 C-14 89 -14 89 -16 87 C-16.265625 85.125 -16.265625 85.125 -16.25 83 C-16.25773437 81.948125 -16.25773437 81.948125 -16.265625 80.875 C-16 79 -16 79 -14 77 C-11.1796875 76.8046875 -11.1796875 76.8046875 -7.875 76.875 C-6.77929688 76.89304687 -5.68359375 76.91109375 -4.5546875 76.9296875 C-3.71164063 76.95289062 -2.86859375 76.97609375 -2 77 C-1.34 78.32 -0.68 79.64 0 81 C2.97 81 5.94 81 9 81 C9.37125 79.8553125 9.37125 79.8553125 9.75 78.6875 C10.1625 77.470625 10.575 76.25375 11 75 C11.25652344 74.09507813 11.51304688 73.19015625 11.77734375 72.2578125 C14.12431844 64.66288152 14.12431844 64.66288152 16.81640625 62.625 C18.75 61.8125 18.75 61.8125 22 61 C22.12117188 61.71027344 22.24234375 62.42054687 22.3671875 63.15234375 C22.53476563 64.07144531 22.70234375 64.99054688 22.875 65.9375 C23.03742188 66.85402344 23.19984375 67.77054687 23.3671875 68.71484375 C23.68042969 69.84599609 23.68042969 69.84599609 24 71 C24.66 71.33 25.32 71.66 26 72 C25.68352646 74.84826188 25.12530218 76.79496007 23.625 79.25 C19.99745979 81.66836014 16.75254936 81.53110812 12.4609375 81.62890625 C11.64882812 81.75136719 10.83671875 81.87382813 10 82 C9.34 82.99 8.68 83.98 8 85 C18.72584576 84.13016828 18.72584576 84.13016828 27 78 C27.433125 76.948125 27.86625 75.89625 28.3125 74.8125 C30 72 30 72 32.1796875 71.17578125 C34.45154108 70.67682275 36.69167688 70.28067661 39 70 C40.10941367 75.32867983 40.11548069 80.46281855 40.0625 85.875 C40.05798828 86.75414063 40.05347656 87.63328125 40.04882812 88.5390625 C40.03712337 90.69273803 40.01919069 92.84637817 40 95 C38.97116699 94.94875977 37.94233398 94.89751953 36.88232422 94.84472656 C33.04764262 94.65938862 29.21222539 94.50208869 25.37597656 94.35302734 C23.71907094 94.28477137 22.06245582 94.20901923 20.40625 94.12548828 C18.01860784 94.00639315 15.6312023 93.91473411 13.2421875 93.828125 C12.50757294 93.78560608 11.77295837 93.74308716 11.01608276 93.69927979 C5.76622106 93.54692168 3.10990851 94.84453946 -1 98 C-6.29616738 99.76538913 -12.93405736 100.19593507 -18.203125 98.140625 C-19.84194968 97.15733019 -21.42510626 96.08273945 -23 95 C-26.77284639 93.59728886 -30.65366633 93.96857745 -34.609375 94.12109375 C-35.33618469 94.14470474 -36.06299438 94.16831573 -36.81182861 94.19264221 C-39.12476558 94.26898872 -41.43734293 94.35313681 -43.75 94.4375 C-45.3215972 94.49074979 -46.89321176 94.54348998 -48.46484375 94.59570312 C-52.31012196 94.72456432 -56.15509651 94.86042127 -60 95 C-60.66434274 67.18277726 -59.21233746 37.21838438 -40.1875 15.0625 C-29.55455188 4.09478139 -15.31042903 -1.09360207 0 0 Z " fill="#000000" transform="translate(60,1)"/>
<path d="M0 0 C8 0 8 0 10.46875 1.5625 C12.52558222 4.83664109 12.53260611 7.15247903 12.5 11 C12.5103125 12.216875 12.520625 13.43375 12.53125 14.6875 C12 18 12 18 10.46875 20.4375 C8 22 8 22 0 22 C0 14.74 0 7.48 0 0 Z " fill="#000000" transform="translate(86,48)"/>
</svg>
