<?xml version="1.0" encoding="UTF-8"?>
<svg version="1.1" xmlns="http://www.w3.org/2000/svg" width="64" height="64">
<path d="M0 0 C2.33294775 -0.04241723 4.66702567 -0.04092937 7 0 C7.33 0.33 7.66 0.66 8 1 C10.0605531 1.09993532 12.1245259 1.13080906 14.1875 1.1328125 C15.44304688 1.13410156 16.69859375 1.13539062 17.9921875 1.13671875 C18.97783691 1.13357666 18.97783691 1.13357666 19.98339844 1.13037109 C21.99161335 1.12502234 23.99960459 1.13031691 26.0078125 1.13671875 C27.26335938 1.13542969 28.51890625 1.13414063 29.8125 1.1328125 C30.97394531 1.13168457 32.13539062 1.13055664 33.33203125 1.12939453 C35.92063284 1.30337474 35.92063284 1.30337474 37 0 C39.33297433 -0.04092937 41.66705225 -0.04241723 44 0 C47.34300394 5.08680271 48.57567443 8.75613018 48.390625 14.90234375 C48.38496521 15.6249086 48.37930542 16.34747345 48.37347412 17.0919342 C48.35128257 19.37449586 48.30112549 21.65542198 48.25 23.9375 C48.22991244 25.49541986 48.21166564 27.0533646 48.1953125 28.61132812 C48.1514753 32.4081715 48.08257421 36.20380957 48 40 C46.52093108 40.02689216 45.04172517 40.04634621 43.5625 40.0625 C42.73878906 40.07410156 41.91507813 40.08570313 41.06640625 40.09765625 C39 40 39 40 38 39 C35.63601532 38.8992188 33.30188689 38.86026785 30.9375 38.8671875 C29.87776978 38.86575241 29.87776978 38.86575241 28.79663086 38.86428833 C27.30029207 38.86360667 25.80395033 38.86545995 24.30761719 38.86962891 C22.00969843 38.87497743 19.71197514 38.86968349 17.4140625 38.86328125 C15.96354123 38.86394203 14.51302009 38.8652232 13.0625 38.8671875 C12.0250061 38.86415115 12.0250061 38.86415115 10.96655273 38.86105347 C7.70264362 38.59769267 7.70264362 38.59769267 5 40 C3.48071962 40.07179964 1.95832518 40.08392007 0.4375 40.0625 C-0.38878906 40.05347656 -1.21507812 40.04445312 -2.06640625 40.03515625 C-2.70449219 40.02355469 -3.34257813 40.01195312 -4 40 C-4.09943798 35.4285302 -4.17173349 30.85770025 -4.21972656 26.28540039 C-4.2397487 24.73255435 -4.26697517 23.17978281 -4.30175781 21.62719727 C-4.3506961 19.38539168 -4.37306168 17.14458907 -4.390625 14.90234375 C-4.41127014 14.21663803 -4.43191528 13.53093231 -4.45318604 12.82444763 C-4.45566975 7.39739848 -2.89704642 4.40822201 0 0 Z M3 5 C2.67 5.99 2.34 6.98 2 8 C7.2500868 11.33019237 13.75801348 10.33345602 19.75390625 10.31567383 C21.99268113 10.31251034 24.23013801 10.33600112 26.46875 10.36132812 C27.89583167 10.36360099 29.32291689 10.36430467 30.75 10.36328125 C32.69132812 10.36775269 32.69132812 10.36775269 34.671875 10.37231445 C38.14071213 9.98425866 39.51353814 9.37461817 42 7 C40.04260658 4.60160517 40.04260658 4.60160517 36.37646484 4.77294922 C34.82125311 4.77326643 33.26601949 4.78459701 31.7109375 4.8046875 C30.89251373 4.8075174 30.07408997 4.81034729 29.23086548 4.81326294 C26.61209607 4.82447468 23.99366636 4.84958071 21.375 4.875 C19.60156743 4.88502853 17.82812951 4.8941546 16.0546875 4.90234375 C11.70299374 4.92441722 7.3515545 4.95895356 3 5 Z M0 12 C0 19.92 0 27.84 0 36 C0.66 35.67 1.32 35.34 2 35 C4.96626711 34.9007499 7.90856587 34.86019185 10.875 34.8671875 C12.19540283 34.86575241 12.19540283 34.86575241 13.54248047 34.86428833 C15.40527416 34.86360724 17.26807023 34.86545657 19.13085938 34.86962891 C21.98833528 34.87497816 24.845654 34.86968151 27.703125 34.86328125 C29.51041701 34.86394204 31.31770893 34.86522323 33.125 34.8671875 C33.98335449 34.86516327 34.84170898 34.86313904 35.72607422 34.86105347 C41.77008255 34.88504128 41.77008255 34.88504128 44 36 C44 28.08 44 20.16 44 12 C43.34 12.33 42.68 12.66 42 13 C39.03373289 13.0992501 36.09143413 13.13980815 33.125 13.1328125 C31.80459717 13.13424759 31.80459717 13.13424759 30.45751953 13.13571167 C28.59472584 13.13639276 26.73192977 13.13454343 24.86914062 13.13037109 C22.01166472 13.12502184 19.154346 13.13031849 16.296875 13.13671875 C14.48958299 13.13605796 12.68229107 13.13477677 10.875 13.1328125 C9.58746826 13.13584885 9.58746826 13.13584885 8.27392578 13.13894653 C2.22991745 13.11495872 2.22991745 13.11495872 0 12 Z " fill="#000000" transform="translate(10,12)"/>
<path d="M0 0 C1.32 0 2.64 0 4 0 C4 5.28 4 10.56 4 16 C2.68 16 1.36 16 0 16 C0 10.72 0 5.44 0 0 Z " fill="#000000" transform="translate(42,28)"/>
<path d="M0 0 C1.32 0 2.64 0 4 0 C4 5.28 4 10.56 4 16 C2.68 16 1.36 16 0 16 C0 10.72 0 5.44 0 0 Z " fill="#000000" transform="translate(34,28)"/>
<path d="M0 0 C1.32 0 2.64 0 4 0 C4 5.28 4 10.56 4 16 C2.68 16 1.36 16 0 16 C0 10.72 0 5.44 0 0 Z " fill="#000000" transform="translate(26,28)"/>
<path d="M0 0 C1.32 0 2.64 0 4 0 C4 5.28 4 10.56 4 16 C2.68 16 1.36 16 0 16 C0 10.72 0 5.44 0 0 Z " fill="#000000" transform="translate(18,28)"/>
</svg>
