<?xml version="1.0" encoding="UTF-8"?>
<svg version="1.1" xmlns="http://www.w3.org/2000/svg" width="64" height="64">
<path d="M0 0 C1.125 3.75 1.125 3.75 0 6 C-0.78375 6.226875 -1.5675 6.45375 -2.375 6.6875 C-6.23954812 8.61977406 -6.59182056 10.99780579 -8 15 C-9.98 15 -11.96 15 -14 15 C-14 14.01 -14 13.02 -14 12 C-16.31 11.67 -18.62 11.34 -21 11 C-22.29979048 13.41389661 -23.10371771 15.43215711 -23.75 18.125 C-25 21 -25 21 -28.125 22.375 C-29.07375 22.58125 -30.0225 22.7875 -31 23 C-30.67 23.99 -30.34 24.98 -30 26 C-28.02 26 -26.04 26 -24 26 C-24 30.29 -24 34.58 -24 39 C-26.31 39 -28.62 39 -31 39 C-29.14880763 42.82770038 -29.14880763 42.82770038 -25.625 44.9375 C-21.84427961 46.46779158 -20.2531632 48.65244324 -18 52 C-17.5625 55.25 -17.5625 55.25 -18 58 C-20 60 -20 60 -22.6875 60.5 C-27.32143546 59.80053804 -29.99822639 57.53235344 -33 54 C-34.04964832 52.0256043 -35.05953536 50.02867599 -36 48 C-37.55460937 48.05220703 -37.55460937 48.05220703 -39.140625 48.10546875 C-40.51040042 48.13361482 -41.88019341 48.16091411 -43.25 48.1875 C-43.93191406 48.21263672 -44.61382812 48.23777344 -45.31640625 48.26367188 C-48.51262602 48.31021876 -50.66692213 48.18591611 -53.484375 46.61328125 C-55 45 -55 45 -55 43 C-55.639375 42.71125 -56.27875 42.4225 -56.9375 42.125 C-59 41 -59 41 -60 39 C-60.5099099 33.41606867 -60.73870063 28.55947912 -58.3125 23.4375 C-55.19142365 20.14771682 -52.63470668 18.20216452 -48.0625 17.63671875 C-47.051875 17.65347656 -46.04125 17.67023437 -45 17.6875 C-43.4840625 17.69330078 -43.4840625 17.69330078 -41.9375 17.69921875 C-38.94733562 18.0053925 -36.76119293 18.87347164 -34 20 C-33.34 19.67 -32.68 19.34 -32 19 C-31.34786708 16.97536745 -31.34786708 16.97536745 -31 15 C-29.68 15 -28.36 15 -27 15 C-25.26337666 11.77484237 -24.1094072 8.48670834 -23 5 C-21.02 5 -19.04 5 -17 5 C-17 5.99 -17 6.98 -17 8 C-13.62563814 8.33380814 -13.62563814 8.33380814 -10 8 C-7.40332353 5.5764353 -6.81138363 3.36144647 -6 0 C-3.50907189 -1.24546405 -2.58919267 -0.7767578 0 0 Z M-50 21 C-50 21.33 -50 21.66 -50 22 C-46.7 22 -43.4 22 -40 22 C-40 21.67 -40 21.34 -40 21 C-43.3 21 -46.6 21 -50 21 Z M-38 23 C-38 23.99 -38 24.98 -38 26 C-37.01 25.67 -36.02 25.34 -35 25 C-35.99 24.34 -36.98 23.68 -38 23 Z M-51.5 26.5 C-53.74602286 30.24337143 -53.48896008 32.66921068 -53 37 C-51.515 37.99 -51.515 37.99 -50 39 C-49.34 35.7 -48.68 32.4 -48 29 C-46.02 29 -44.04 29 -42 29 C-41.34 32.3 -40.68 35.6 -40 39 C-39.01 38.34 -38.02 37.68 -37 37 C-36.73481868 32.82339427 -36.68113578 29.95659266 -38 26 C-42.77832567 24.40722478 -47.14672217 23.8880333 -51.5 26.5 Z M-57 28 C-57 30.97 -57 33.94 -57 37 C-56.67 37 -56.34 37 -56 37 C-56 34.03 -56 31.06 -56 28 C-56.33 28 -56.66 28 -57 28 Z M-34 28 C-34 31.3 -34 34.6 -34 38 C-33.67 38 -33.34 38 -33 38 C-33 34.7 -33 31.4 -33 28 C-33.33 28 -33.66 28 -34 28 Z M-28 28 C-28 30.97 -28 33.94 -28 37 C-27.34 37 -26.68 37 -26 37 C-26 34.03 -26 31.06 -26 28 C-26.66 28 -27.32 28 -28 28 Z M-46 31 C-46 31.66 -46 32.32 -46 33 C-45.34 33 -44.68 33 -44 33 C-44 32.34 -44 31.68 -44 31 C-44.66 31 -45.32 31 -46 31 Z M-46 36 C-47.32 37.32 -48.64 38.64 -50 40 C-48.81575674 41.41577477 -48.81575674 41.41577477 -45.4375 41.0625 C-43.7359375 41.0315625 -43.7359375 41.0315625 -42 41 C-42.26676204 39.01508358 -42.26676204 39.01508358 -43 37 C-43.99 36.67 -44.98 36.34 -46 36 Z M-55 40 C-55 40.99 -55 41.98 -55 43 C-54.01 42.67 -53.02 42.34 -52 42 C-52.99 41.34 -53.98 40.68 -55 40 Z M-49 44 C-49 44.33 -49 44.66 -49 45 C-46.03 45 -43.06 45 -40 45 C-40 44.67 -40 44.34 -40 44 C-42.97 44 -45.94 44 -49 44 Z M-25 50 C-26.485 51.98 -26.485 51.98 -28 54 C-26.7511573 55.5833253 -26.7511573 55.5833253 -25 57 C-23.68 57 -22.36 57 -21 57 C-21.27034634 54.56282742 -21.27034634 54.56282742 -22 52 C-22.99 51.34 -23.98 50.68 -25 50 Z " fill="#000000" transform="translate(62,2)"/>
<path d="M0 0 C3.375 1.875 3.375 1.875 6 4 C6 4.99 6 5.98 6 7 C4.68 7 3.36 7 2 7 C2 9.64 2 12.28 2 15 C1.34 15 0.68 15 0 15 C0 11.37 0 7.74 0 4 C-4.71058562 2.6278958 -4.71058562 2.6278958 -8 4 C-8 6.97 -8 9.94 -8 13 C-6.02 13 -4.04 13 -2 13 C-2 13.66 -2 14.32 -2 15 C-4.64 15 -7.28 15 -10 15 C-10 12.36 -10 9.72 -10 7 C-11.32 7 -12.64 7 -14 7 C-14 6.01 -14 5.02 -14 4 C-9.76841942 0.09062099 -5.62105168 -2.07734519 0 0 Z " fill="#000000" transform="translate(20,3)"/>
<path d="M0 0 C1.98 0 3.96 0 6 0 C6 6.93 6 13.86 6 21 C5.34 21 4.68 21 4 21 C4 14.73 4 8.46 4 2 C3.34 2 2.68 2 2 2 C2 9.92 2 17.84 2 26 C2.66 26 3.32 26 4 26 C4 25.01 4 24.02 4 23 C4.66 23 5.32 23 6 23 C6 24.65 6 26.3 6 28 C4.02 28 2.04 28 0 28 C0 18.76 0 9.52 0 0 Z " fill="#000000" transform="translate(56,13)"/>
<path d="M0 0 C1.98 0 3.96 0 6 0 C6 4.95 6 9.9 6 15 C5.34 15 4.68 15 4 15 C4 10.71 4 6.42 4 2 C3.34 2 2.68 2 2 2 C2 7.94 2 13.88 2 20 C2.66 20 3.32 20 4 20 C4 19.01 4 18.02 4 17 C4.66 17 5.32 17 6 17 C6 18.65 6 20.3 6 22 C4.02 22 2.04 22 0 22 C0 14.74 0 7.48 0 0 Z " fill="#000000" transform="translate(40,19)"/>
<path d="M0 0 C1.98 0 3.96 0 6 0 C6 3.96 6 7.92 6 12 C5.34 12 4.68 12 4 12 C4 8.7 4 5.4 4 2 C3.34 2 2.68 2 2 2 C2 6.62 2 11.24 2 16 C2.66 16 3.32 16 4 16 C4 15.34 4 14.68 4 14 C4.66 14 5.32 14 6 14 C6 15.32 6 16.64 6 18 C4.02 18 2.04 18 0 18 C0 12.06 0 6.12 0 0 Z " fill="#000000" transform="translate(48,23)"/>
</svg>
