<?xml version="1.0" encoding="UTF-8"?>
<svg version="1.1" xmlns="http://www.w3.org/2000/svg" width="96" height="96">
<path d="M0 0 C6.14625 0.66 12.2925 1.32 18.625 2 C18.625 22.46 18.625 42.92 18.625 64 C12.1075 65.670625 5.59 67.34125 -1.125 69.0625 C-3.15624023 69.59367432 -5.18748047 70.12484863 -7.28027344 70.67211914 C-16.64284032 73.05734236 -24.74458662 74.86620522 -34.375 73 C-35.89564833 72.74426007 -37.41686374 72.49188065 -38.93847656 72.24194336 C-44.17851538 71.3631915 -49.40025222 70.40375938 -54.625 69.4375 C-60.8125 68.303125 -67 67.16875 -73.375 66 C-73.375 44.88 -73.375 23.76 -73.375 2 C-67.22875 1.34 -61.0825 0.68 -54.75 0 C-51.88707275 -0.31324219 -51.88707275 -0.31324219 -48.96630859 -0.6328125 C-32.32028587 -2.41175075 -16.60548487 -1.81686014 0 0 Z " fill="#9F7E74" transform="translate(75.375,13)"/>
<path d="M0 0 C0 20.46 0 40.92 0 62 C-6.703125 63.65 -13.40625 65.3 -20.3125 67 C-22.42567627 67.52207031 -24.53885254 68.04414062 -26.71606445 68.58203125 C-28.39006944 68.99246201 -30.06413744 69.40263587 -31.73828125 69.8125 C-32.60819702 70.02841797 -33.47811279 70.24433594 -34.37438965 70.46679688 C-35.20643921 70.66982422 -36.03848877 70.87285156 -36.89575195 71.08203125 C-37.61745071 71.25968018 -38.33914948 71.4373291 -39.0827179 71.62036133 C-41 72 -41 72 -44 72 C-44 50.55 -44 29.1 -44 7 C-31 5 -31 5 -26 5 C-26 8.96 -26 12.92 -26 17 C-17.585 15.515 -17.585 15.515 -9 14 C-8.67 10.04 -8.34 6.08 -8 2 C-1.125 0 -1.125 0 0 0 Z " fill="#8A6257" transform="translate(94,15)"/>
<path d="M0 0 C2.12698673 0.21324228 4.25473688 0.41683629 6.3828125 0.61889648 C12.15629993 1.17698068 17.88614309 1.76076947 23.6015625 2.77319336 C20.6015625 4.77319336 20.6015625 4.77319336 16.6015625 4.77319336 C16.6015625 8.73319336 16.6015625 12.69319336 16.6015625 16.77319336 C10.73029247 19.21955587 4.88302023 19.35442951 -1.3984375 19.77319336 C-1.3984375 15.81319336 -1.3984375 11.85319336 -1.3984375 7.77319336 C-3.6272334 7.49902889 -5.85637706 7.22853936 -8.0859375 6.96069336 C-9.17370483 6.82920898 -9.17370483 6.82920898 -10.28344727 6.69506836 C-15.48818533 6.07970911 -20.69695437 5.54286092 -25.9140625 5.04272461 C-27.21899658 4.91551025 -28.52393066 4.7882959 -29.8684082 4.65722656 C-32.50166133 4.40234335 -35.13562753 4.15471712 -37.77026367 3.91455078 C-39.59521362 3.73629761 -39.59521362 3.73629761 -41.45703125 3.55444336 C-42.55329834 3.45196289 -43.64956543 3.34948242 -44.77905273 3.24389648 C-47.3984375 2.77319336 -47.3984375 2.77319336 -49.3984375 0.77319336 C-46.19127379 0.42796188 -42.98258771 0.09939819 -39.7734375 -0.22680664 C-38.88914062 -0.32219727 -38.00484375 -0.41758789 -37.09375 -0.51586914 C-24.63494028 -1.76175011 -12.42028916 -1.2458085 0 0 Z " fill="#D1C0BB" transform="translate(69.3984375,12.226806640625)"/>
<path d="M0 0 C1.57219354 0.18485893 3.14445899 0.36910725 4.71679688 0.55273438 C11.21818021 1.3176509 17.70972742 2.11575267 24.1875 3.0625 C23.8575 3.7225 23.5275 4.3825 23.1875 5.0625 C14.49187001 6.91263404 5.56623007 6.18197017 -3.1796875 5.0390625 C-4.44270187 4.87970718 -4.44270187 4.87970718 -5.73123169 4.71713257 C-7.49114342 4.49325824 -9.25065667 4.26622997 -11.00976562 4.03613281 C-13.7006304 3.68579046 -16.39306639 3.3501553 -19.0859375 3.015625 C-20.80480027 2.79514821 -22.52355464 2.57382431 -24.2421875 2.3515625 C-25.04324921 2.25251617 -25.84431091 2.15346985 -26.66964722 2.05142212 C-30.38507494 1.55509494 -33.60289032 1.07773676 -36.8125 -0.9375 C-24.51731156 -3.17298881 -12.2766542 -1.48827352 0 0 Z " fill="#B59A93" transform="translate(39.8125,15.9375)"/>
<path d="M0 0 C2.46381096 0.33388821 4.93930649 0.58611115 7.41796875 0.78125 C8.85091309 0.90232439 10.28385575 1.02341872 11.71679688 1.14453125 C13.96164649 1.32455324 16.20671575 1.50150411 18.4519043 1.67724609 C20.62877473 1.85033349 22.80455005 2.03414053 24.98046875 2.21875 C26.27879639 2.32123047 27.57712402 2.42371094 28.91479492 2.52929688 C32 3 32 3 34 5 C20.95453749 7.09438781 7.98322898 5.95821077 -5.05078125 4.40087891 C-7.42052282 4.11959656 -9.7919318 3.85794113 -12.1640625 3.59765625 C-13.67981951 3.42301698 -15.19545047 3.24727932 -16.7109375 3.0703125 C-17.41600433 2.99313995 -18.12107117 2.91596741 -18.84750366 2.8364563 C-23.76985184 2.23014816 -23.76985184 2.23014816 -26 0 C-22.60621642 -0.39536615 -19.20995602 -0.76266433 -15.8125 -1.125 C-14.85279297 -1.23714844 -13.89308594 -1.34929688 -12.90429688 -1.46484375 C-11.97294922 -1.56152344 -11.04160156 -1.65820312 -10.08203125 -1.7578125 C-9.22843018 -1.8520752 -8.3748291 -1.94633789 -7.49536133 -2.04345703 C-4.57038101 -1.99251813 -2.70586632 -1.08803888 0 0 Z " fill="#E6DDD9" transform="translate(46,13)"/>
<path d="M0 0 C7.10816084 0.05998892 14.14169511 0.67868215 21.20849609 1.37915039 C23.35329658 1.59156292 25.49878185 1.7954659 27.64453125 1.99804688 C33.45073384 2.55584671 39.21359228 3.13251159 44.9609375 4.15234375 C41.9609375 6.15234375 41.9609375 6.15234375 37.9609375 6.15234375 C37.9609375 10.11234375 37.9609375 14.07234375 37.9609375 18.15234375 C37.6309375 18.15234375 37.3009375 18.15234375 36.9609375 18.15234375 C36.9609375 14.52234375 36.9609375 10.89234375 36.9609375 7.15234375 C33.30312838 5.93307404 29.75021778 5.74107136 25.93359375 5.46875 C24.3209437 5.34465864 22.70831408 5.22030146 21.09570312 5.09570312 C18.55695065 4.90377924 16.01806853 4.71445381 13.47875977 4.5300293 C11.02558357 4.35029635 8.57337911 4.16020449 6.12109375 3.96875 C5.363694 3.91658829 4.60629425 3.86442657 3.82594299 3.8106842 C0.13051941 3.51597291 -2.87452712 3.16783597 -6.0390625 1.15234375 C-4.35547633 -0.53124242 -2.30951024 0.00331434 0 0 Z " fill="#B79E97" transform="translate(48.0390625,10.84765625)"/>
<path d="M0 0 C2.67650449 1.46776053 3.56776376 3.39151432 4.9375 6.0625 C3.9475 6.0625 2.9575 6.0625 1.9375 6.0625 C1.9375 9.0325 1.9375 12.0025 1.9375 15.0625 C0.9475 15.5575 0.9475 15.5575 -0.0625 16.0625 C2.2475 16.3925 4.5575 16.7225 6.9375 17.0625 C6.9375 18.3825 6.9375 19.7025 6.9375 21.0625 C2.3175 20.0725 -2.3025 19.0825 -7.0625 18.0625 C-7.0625 17.0725 -7.0625 16.0825 -7.0625 15.0625 C-5.7425 15.0625 -4.4225 15.0625 -3.0625 15.0625 C-3.0625 11.7625 -3.0625 8.4625 -3.0625 5.0625 C-4.0525 4.7325 -5.0425 4.4025 -6.0625 4.0625 C-2.68455467 0.08135014 -2.68455467 0.08135014 0 0 Z " fill="#393939" transform="translate(14.0625,56.9375)"/>
<path d="M0 0 C0.33 0 0.66 0 1 0 C1 2.97 1 5.94 1 9 C1.66 9.33 2.32 9.66 3 10 C3 10.33 3 10.66 3 11 C5.31 11.33 7.62 11.66 10 12 C10 13.32 10 14.64 10 16 C5.38 15.01 0.76 14.02 -4 13 C-4 12.01 -4 11.02 -4 10 C-2.68 10 -1.36 10 0 10 C0 6.7 0 3.4 0 0 Z " fill="#504C4B" transform="translate(11,62)"/>
</svg>
