<?xml version="1.0" encoding="UTF-8"?>
<svg xmlns="http://www.w3.org/2000/svg" xmlns:xlink="http://www.w3.org/1999/xlink" width="2500" height="2500" viewBox="0 0 2500 2500">
<path fill-rule="evenodd" fill="rgb(50%, 50%, 50%)" fill-opacity="1" d="M 2153.539062 353.320312 C 2149.53125 325.328125 2134.558594 300.089844 2111.929688 283.140625 C 2089.300781 266.191406 2060.871094 258.929688 2032.890625 262.941406 C 1707.871094 309.578125 724.296875 450.710938 399.277344 497.351562 C 371.292969 501.359375 346.050781 516.328125 329.101562 538.960938 C 312.152344 561.578125 304.886719 590.019531 308.902344 618 C 342.171875 849.859375 421.328125 1401.53125 454.597656 1633.386719 C 458.613281 1661.367188 473.582031 1686.613281 496.207031 1703.5625 C 518.835938 1720.507812 547.265625 1727.773438 575.25 1723.757812 C 900.269531 1677.121094 1883.839844 1535.992188 2208.859375 1489.359375 C 2236.851562 1485.339844 2262.089844 1470.371094 2279.039062 1447.75 C 2295.988281 1425.121094 2303.25 1396.691406 2299.238281 1368.699219 C 2265.96875 1136.839844 2186.808594 585.179688 2153.539062 353.320312 "/>
<path fill-rule="evenodd" fill="rgb(100%, 100%, 100%)" fill-opacity="1" d="M 2063.210938 596.378906 C 2063.210938 568.109375 2051.980469 540.988281 2031.988281 521 C 2012 501.011719 1984.890625 489.78125 1956.621094 489.78125 C 1628.269531 489.78125 634.625 489.78125 306.277344 489.78125 C 278.007812 489.78125 250.894531 501.011719 230.902344 521 C 210.914062 540.988281 199.683594 568.109375 199.683594 596.378906 C 199.683594 830.609375 199.683594 1387.921875 199.683594 1622.160156 C 199.683594 1650.429688 210.914062 1677.542969 230.902344 1697.53125 C 250.894531 1717.523438 278.007812 1728.753906 306.277344 1728.753906 C 634.625 1728.753906 1628.269531 1728.753906 1956.621094 1728.753906 C 1984.890625 1728.753906 2012 1717.523438 2031.988281 1697.53125 C 2051.980469 1677.542969 2063.210938 1650.429688 2063.210938 1622.160156 C 2063.210938 1387.921875 2063.210938 830.609375 2063.210938 596.378906 "/>
<path fill="none" stroke-width="300" stroke-linecap="round" stroke-linejoin="round" stroke="rgb(0%, 0%, 0%)" stroke-opacity="1" stroke-miterlimit="10" d="M 20632.109375 19036.210938 C 20632.109375 19318.90625 20519.804688 19590.117188 20319.882812 19790 C 20120 19989.882812 19848.90625 20102.1875 19566.210938 20102.1875 C 16282.695312 20102.1875 6346.25 20102.1875 3062.773438 20102.1875 C 2780.078125 20102.1875 2508.945312 19989.882812 2309.023438 19790 C 2109.140625 19590.117188 1996.835938 19318.90625 1996.835938 19036.210938 C 1996.835938 16693.90625 1996.835938 11120.78125 1996.835938 8778.398438 C 1996.835938 8495.703125 2109.140625 8224.570312 2309.023438 8024.6875 C 2508.945312 7824.765625 2780.078125 7712.460938 3062.773438 7712.460938 C 6346.25 7712.460938 16282.695312 7712.460938 19566.210938 7712.460938 C 19848.90625 7712.460938 20120 7824.765625 20319.882812 8024.6875 C 20519.804688 8224.570312 20632.109375 8495.703125 20632.109375 8778.398438 C 20632.109375 11120.78125 20632.109375 16693.90625 20632.109375 19036.210938 Z M 20632.109375 19036.210938 " transform="matrix(0.1, 0, 0, -0.1, 0, 2500)"/>
<path fill-rule="evenodd" fill="rgb(0%, 0%, 0%)" fill-opacity="1" d="M 2063.210938 751.570312 L 199.683594 751.570312 L 199.683594 1007.578125 L 2063.210938 1007.578125 L 2063.210938 751.570312 "/>
<path fill-rule="evenodd" fill="rgb(0%, 0%, 0%)" fill-opacity="1" d="M 1549.621094 1306.640625 C 1624.128906 1306.640625 1684.621094 1367.128906 1684.621094 1441.640625 C 1684.621094 1516.144531 1624.128906 1576.636719 1549.621094 1576.636719 C 1475.109375 1576.636719 1414.621094 1516.144531 1414.621094 1441.640625 C 1414.621094 1367.128906 1475.109375 1306.640625 1549.621094 1306.640625 Z M 1819.621094 1306.640625 C 1894.128906 1306.640625 1954.621094 1367.128906 1954.621094 1441.640625 C 1954.621094 1516.144531 1894.128906 1576.636719 1819.621094 1576.636719 C 1745.109375 1576.636719 1684.621094 1516.144531 1684.621094 1441.640625 C 1684.621094 1367.128906 1745.109375 1306.640625 1819.621094 1306.640625 "/>
<path fill="none" stroke-width="300" stroke-linecap="round" stroke-linejoin="round" stroke="rgb(0%, 0%, 0%)" stroke-opacity="1" stroke-miterlimit="10" d="M 15496.210938 11933.59375 C 16241.289062 11933.59375 16846.210938 11328.710938 16846.210938 10583.59375 C 16846.210938 9838.554688 16241.289062 9233.632812 15496.210938 9233.632812 C 14751.09375 9233.632812 14146.210938 9838.554688 14146.210938 10583.59375 C 14146.210938 11328.710938 14751.09375 11933.59375 15496.210938 11933.59375 Z M 18196.210938 11933.59375 C 18941.289062 11933.59375 19546.210938 11328.710938 19546.210938 10583.59375 C 19546.210938 9838.554688 18941.289062 9233.632812 18196.210938 9233.632812 C 17451.09375 9233.632812 16846.210938 9838.554688 16846.210938 10583.59375 C 16846.210938 11328.710938 17451.09375 11933.59375 18196.210938 11933.59375 Z M 18196.210938 11933.59375 " transform="matrix(0.1, 0, 0, -0.1, 0, 2500)"/>
<path fill-rule="evenodd" fill="rgb(20.896912%, 60.742188%, 21.409607%)" fill-opacity="1" d="M 743.308594 1219.371094 C 835.777344 1359.839844 973.726562 1433.050781 1130.320312 1387.628906 C 1130.320312 1387.628906 1138.851562 1649.859375 1108.949219 1796.476562 C 1072.761719 1973.90625 904.003906 2198.183594 743.777344 2238.019531 L 743.308594 2238.136719 C 582.953125 2198.632812 413.890625 1974.085938 377.664062 1796.476562 C 347.765625 1649.859375 356.292969 1387.628906 356.292969 1387.628906 C 512.890625 1433.050781 650.835938 1359.839844 743.308594 1219.371094 "/>
<path fill="none" stroke-width="300" stroke-linecap="round" stroke-linejoin="round" stroke="rgb(0%, 0%, 0%)" stroke-opacity="1" stroke-miterlimit="10" d="M 7433.085938 12806.289062 C 8357.773438 11401.601562 9737.265625 10669.492188 11303.203125 11123.710938 C 11303.203125 11123.710938 11388.515625 8501.40625 11089.492188 7035.234375 C 10727.617188 5260.9375 9040.039062 3018.164062 7437.773438 2619.804688 L 7433.085938 2618.632812 C 5829.53125 3013.671875 4138.90625 5259.140625 3776.640625 7035.234375 C 3477.65625 8501.40625 3562.929688 11123.710938 3562.929688 11123.710938 C 5128.90625 10669.492188 6508.359375 11401.601562 7433.085938 12806.289062 Z M 7433.085938 12806.289062 " transform="matrix(0.1, 0, 0, -0.1, 0, 2500)"/>
<path fill="none" stroke-width="1000" stroke-linecap="round" stroke-linejoin="round" stroke="rgb(100%, 100%, 100%)" stroke-opacity="1" stroke-miterlimit="10" d="M 5297.617188 6809.492188 L 6700.546875 5553.007812 L 9568.554688 9871.914062 " transform="matrix(0.1, 0, 0, -0.1, 0, 2500)"/>
</svg>
