<?xml version="1.0" encoding="UTF-8"?>
<svg version="1.1" xmlns="http://www.w3.org/2000/svg" width="96" height="96">
<path d="M0 0 C1.69713638 -0.01925285 1.69713638 -0.01925285 3.42855835 -0.03889465 C4.66079132 -0.04628159 5.89302429 -0.05366852 7.16259766 -0.0612793 C8.41924225 -0.06935104 9.67588684 -0.07742279 10.97061157 -0.08573914 C13.6355561 -0.09959978 16.30037606 -0.11061057 18.96533203 -0.11816406 C22.38099734 -0.1292318 25.7960117 -0.16363019 29.21144676 -0.20333576 C32.46593289 -0.23574551 35.72047471 -0.24027625 38.97509766 -0.2487793 C40.20328217 -0.26628738 41.43146667 -0.28379547 42.6968689 -0.30183411 C43.83459747 -0.29890854 44.97232605 -0.29598297 46.14453125 -0.29296875 C47.64891251 -0.30176811 47.64891251 -0.30176811 49.1836853 -0.31074524 C51.70166016 0.17700195 51.70166016 0.17700195 53.53067017 2.07258606 C55.44003445 5.50395318 54.89509306 8.30834388 54.70166016 12.17700195 C55.35239502 12.15605469 56.00312988 12.13510742 56.67358398 12.11352539 C59.62028571 12.03040857 62.56674106 11.97835711 65.51416016 11.92700195 C66.53832031 11.89348633 67.56248047 11.8599707 68.61767578 11.82543945 C69.60058594 11.81254883 70.58349609 11.7996582 71.59619141 11.78637695 C72.50216064 11.76542969 73.40812988 11.74448242 74.34155273 11.72290039 C76.70166016 12.17700195 76.70166016 12.17700195 78.43408203 13.99511719 C84.00004543 23.57582113 85.17167264 34.62802313 85.20166016 45.48950195 C85.20770264 46.48570557 85.21374512 47.48190918 85.2199707 48.50830078 C85.07590019 56.77709678 85.07590019 56.77709678 81.70166016 60.17700195 C78.01416016 60.42700195 78.01416016 60.42700195 74.70166016 60.17700195 C74.41291016 60.98137695 74.12416016 61.78575195 73.82666016 62.61450195 C72.70166016 65.17700195 72.70166016 65.17700195 70.70166016 66.17700195 C66.25796178 66.70029462 62.83042567 67.00292794 59.13916016 64.30200195 C57.70166016 62.17700195 57.70166016 62.17700195 57.70166016 60.17700195 C53.95031462 60.19981056 50.20201373 60.27712812 46.45166016 60.36450195 C44.85644531 60.37320313 44.85644531 60.37320313 43.22900391 60.38208008 C37.07646716 60.33397255 37.07646716 60.33397255 32.27978516 63.6887207 C31.49861328 64.92041992 31.49861328 64.92041992 30.70166016 66.17700195 C27.30297454 67.10292592 24.1361929 66.92667154 20.70166016 66.17700195 C20.06228516 65.37262695 19.42291016 64.56825195 18.76416016 63.73950195 C16.97085468 60.92617596 16.97085468 60.92617596 14.13134766 60.76293945 C12.17606217 60.66594096 10.21794208 60.613252 8.26025391 60.6105957 C5.70166016 60.17700195 5.70166016 60.17700195 3.87744141 58.75512695 C2.04475023 54.73660145 2.34812248 50.84779122 2.45166016 46.48950195 C2.45681641 45.6097168 2.46197266 44.72993164 2.46728516 43.82348633 C2.54737395 37.33128816 2.54737395 37.33128816 3.70166016 36.17700195 C6.20166016 36.05200195 6.20166016 36.05200195 8.70166016 36.17700195 C10.76088417 38.23622597 10.11593595 42.39408319 10.26416016 45.23950195 C10.30734375 45.99811523 10.35052734 46.75672852 10.39501953 47.53833008 C10.50139649 49.41765633 10.6020595 51.29730439 10.70166016 53.17700195 C13.6285457 53.38547318 13.6285457 53.38547318 16.70166016 53.17700195 C17.27916016 52.35200195 17.85666016 51.52700195 18.45166016 50.67700195 C20.70166016 48.17700195 20.70166016 48.17700195 23.02978516 47.66918945 C28.03232682 47.44977973 28.03232682 47.44977973 30.70166016 48.17700195 C32.02166016 49.82700195 33.34166016 51.47700195 34.70166016 53.17700195 C38.99166016 53.50700195 43.28166016 53.83700195 47.70166016 54.17700195 C47.37166016 38.66700195 47.04166016 23.15700195 46.70166016 7.17700195 C29.54166016 6.84700195 12.38166016 6.51700195 -5.29833984 6.17700195 C-5.62833984 4.52700195 -5.95833984 2.87700195 -6.29833984 1.17700195 C-4.58569968 -0.53563821 -2.34008034 0.02300565 0 0 Z M54.70166016 18.17700195 C54.70166016 30.05700195 54.70166016 41.93700195 54.70166016 54.17700195 C55.69166016 54.17700195 56.68166016 54.17700195 57.70166016 54.17700195 C57.99041016 53.53762695 58.27916016 52.89825195 58.57666016 52.23950195 C59.70166016 50.17700195 59.70166016 50.17700195 61.70166016 49.17700195 C63.76025391 48.97387695 63.76025391 48.97387695 66.13916016 48.92700195 C66.92162109 48.9012207 67.70408203 48.87543945 68.51025391 48.84887695 C71.21904366 49.25447114 72.02326955 50.06233245 73.70166016 52.17700195 C74.03166016 52.83700195 74.36166016 53.49700195 74.70166016 54.17700195 C76.18666016 53.68200195 76.18666016 53.68200195 77.70166016 53.17700195 C78.34238395 40.87510512 77.31705464 30.66252463 72.70166016 19.17700195 C72.37166016 18.84700195 72.04166016 18.51700195 71.70166016 18.17700195 C66.09166016 18.17700195 60.48166016 18.17700195 54.70166016 18.17700195 Z M23.70166016 55.17700195 C23.70166016 56.49700195 23.70166016 57.81700195 23.70166016 59.17700195 C25.02166016 59.17700195 26.34166016 59.17700195 27.70166016 59.17700195 C27.70166016 57.85700195 27.70166016 56.53700195 27.70166016 55.17700195 C26.38166016 55.17700195 25.06166016 55.17700195 23.70166016 55.17700195 Z M64.70166016 55.17700195 C64.70166016 56.49700195 64.70166016 57.81700195 64.70166016 59.17700195 C66.02166016 58.84700195 67.34166016 58.51700195 68.70166016 58.17700195 C68.37166016 57.18700195 68.04166016 56.19700195 67.70166016 55.17700195 C66.71166016 55.17700195 65.72166016 55.17700195 64.70166016 55.17700195 Z " fill="#000000" transform="translate(7.29833984375,14.822998046875)"/>
<path d="M0 0 C1.48831242 0.00667405 2.97660807 0.01863442 4.46484375 0.03515625 C5.22345703 0.03966797 5.98207031 0.04417969 6.76367188 0.04882812 C8.64326246 0.06064945 10.52281274 0.07858547 12.40234375 0.09765625 C12.40234375 2.07765625 12.40234375 4.05765625 12.40234375 6.09765625 C7.12234375 6.09765625 1.84234375 6.09765625 -3.59765625 6.09765625 C-3.92765625 4.44765625 -4.25765625 2.79765625 -4.59765625 1.09765625 C-3.59765625 0.09765625 -3.59765625 0.09765625 0 0 Z " fill="#000000" transform="translate(11.59765625,26.90234375)"/>
<path d="M0 0 C1.51400391 0.01740234 1.51400391 0.01740234 3.05859375 0.03515625 C4.07050781 0.04417969 5.08242187 0.05320313 6.125 0.0625 C7.29869141 0.07990234 7.29869141 0.07990234 8.49609375 0.09765625 C8.87828142 1.75380282 9.21004477 3.42222649 9.49609375 5.09765625 C8.49609375 6.09765625 8.49609375 6.09765625 5.9921875 6.1953125 C4.47818359 6.17791016 4.47818359 6.17791016 2.93359375 6.16015625 C1.92167969 6.15113281 0.90976563 6.14210938 -0.1328125 6.1328125 C-0.91527344 6.12121094 -1.69773437 6.10960937 -2.50390625 6.09765625 C-2.88609392 4.44150968 -3.21785727 2.77308601 -3.50390625 1.09765625 C-2.50390625 0.09765625 -2.50390625 0.09765625 0 0 Z " fill="#000000" transform="translate(7.50390625,38.90234375)"/>
</svg>
